<svg width="143" height="25" viewBox="0 0 143 25" fill="none" xmlns="http://www.w3.org/2000/svg">
<path d="M3.32031 25H0.953835L9.94886 0.272727H12.3636L21.3587 25H18.9922L11.2408 3.20668H11.0717L3.32031 25ZM5.02273 15.522H17.2898V17.5504H5.02273V15.522ZM35.1591 25V0.272727H37.4169V22.9716H49.201V25H35.1591ZM63.8466 25V0.272727H78.1903V2.30113H66.1044V11.6101H77.4297V13.6385H66.1044V22.9716H78.4318V25H63.8466ZM93.983 0.272727L100.829 11.0064H100.986L107.832 0.272727H110.5L102.543 12.6364L110.5 25H107.832L100.986 14.3871H100.829L93.983 25H91.3146L99.392 12.6364L91.3146 0.272727H93.983ZM124.379 25H122.012L131.007 0.272727H133.422L142.417 25H140.051L132.299 3.20668H132.13L124.379 25ZM126.081 15.522H138.348V17.5504H126.081V15.522Z" fill="black"/>
</svg>
